<svg width="260" height="85" viewBox="0 0 260 85" fill="none" xmlns="http://www.w3.org/2000/svg">
<rect x="0.485352" y="0.949219" width="258.971" height="83.5" rx="41.75" fill="#151515"/>
<path d="M213.471 67.3053C227.395 67.3053 238.682 56.0181 238.682 42.0939C238.682 28.1697 227.395 16.8826 213.471 16.8826C199.547 16.8826 188.26 28.1697 188.26 42.0939C188.26 56.0181 199.547 67.3053 213.471 67.3053Z" stroke="white" stroke-width="2.42029" stroke-linejoin="round"/>
<path d="M209.689 53.439L221.035 42.0939L209.689 30.7488" stroke="white" stroke-width="2.42029" stroke-linecap="round" stroke-linejoin="round"/>
<path d="M33.2138 38.6301C32.9869 37.9357 32.6878 37.3134 32.3165 36.7633C31.9521 36.2064 31.5155 35.732 31.0067 35.34C30.5048 34.9481 29.9341 34.649 29.2946 34.4427C28.6552 34.2365 27.9538 34.1333 27.1906 34.1333C25.9392 34.1333 24.8013 34.4565 23.7768 35.1028C22.7523 35.7491 21.9375 36.7014 21.3324 37.9597C20.7273 39.218 20.4248 40.7616 20.4248 42.5906C20.4248 44.4196 20.7308 45.9632 21.3427 47.2215C21.9547 48.4797 22.7832 49.432 23.8283 50.0784C24.8735 50.7247 26.0492 51.0479 27.3556 51.0479C28.5658 51.0479 29.6315 50.79 30.5529 50.2743C31.4811 49.7518 32.2031 49.016 32.7188 48.0672C33.2413 47.1114 33.5026 45.9872 33.5026 44.6946L34.2865 44.8596H27.9332V42.5906H35.9779V44.8596C35.9779 46.5992 35.6066 48.1119 34.864 49.3977C34.1283 50.6834 33.1107 51.6804 31.8112 52.3886C30.5185 53.09 29.0333 53.4406 27.3556 53.4406C25.4854 53.4406 23.8421 53.0006 22.4257 52.1205C21.0161 51.2404 19.916 49.989 19.1253 48.3663C18.3414 46.7436 17.9495 44.8184 17.9495 42.5906C17.9495 40.9198 18.173 39.4174 18.6199 38.0835C19.0737 36.7427 19.7132 35.6013 20.5383 34.6593C21.3634 33.7173 22.3397 32.9954 23.4674 32.4934C24.595 31.9915 25.8361 31.7405 27.1906 31.7405C28.3045 31.7405 29.3427 31.909 30.3054 32.2459C31.2748 32.576 32.1378 33.0469 32.8941 33.6589C33.6573 34.264 34.2933 34.9894 34.8021 35.8351C35.311 36.6739 35.6616 37.6056 35.8541 38.6301H33.2138ZM46.6707 53.4819C45.1442 53.4819 43.8275 53.145 42.7205 52.4711C41.6204 51.7904 40.7712 50.8416 40.173 49.6246C39.5817 48.4007 39.286 46.9774 39.286 45.3547C39.286 43.732 39.5817 42.3018 40.173 41.0642C40.7712 39.8196 41.6032 38.8501 42.6689 38.1557C43.7416 37.4544 44.993 37.1037 46.4231 37.1037C47.2482 37.1037 48.063 37.2412 48.8675 37.5162C49.672 37.7913 50.4042 38.2382 51.0643 38.857C51.7244 39.469 52.2504 40.2803 52.6423 41.2911C53.0343 42.3018 53.2302 43.5463 53.2302 45.0246V46.056H41.0188V43.952H50.7549C50.7549 43.0581 50.5761 42.2606 50.2186 41.5592C49.8679 40.8579 49.366 40.3044 48.7128 39.8987C48.0665 39.493 47.3033 39.2902 46.4231 39.2902C45.4537 39.2902 44.6148 39.5308 43.9066 40.0122C43.2053 40.4866 42.6655 41.1054 42.2873 41.8686C41.9092 42.6318 41.7201 43.4501 41.7201 44.3233V45.726C41.7201 46.9224 41.9264 47.9365 42.3389 48.7685C42.7583 49.5936 43.3393 50.2228 44.0819 50.6559C44.8245 51.0822 45.6874 51.2954 46.6707 51.2954C47.3101 51.2954 47.8877 51.206 48.4034 51.0272C48.9259 50.8416 49.3763 50.5665 49.7545 50.2021C50.1327 49.8308 50.4249 49.3702 50.6312 48.8201L52.9827 49.4802C52.7352 50.2778 52.3192 50.9791 51.7347 51.5842C51.1503 52.1824 50.4283 52.6499 49.5688 52.9868C48.7094 53.3169 47.7433 53.4819 46.6707 53.4819ZM63.8224 37.31V39.3727H55.6127V37.31H63.8224ZM58.0055 33.5145H60.4395V48.6138C60.4395 49.3014 60.5392 49.8171 60.7386 50.1609C60.9449 50.4978 61.2062 50.7247 61.5225 50.8416C61.8456 50.9516 62.186 51.0066 62.5435 51.0066C62.8117 51.0066 63.0317 50.9928 63.2036 50.9653C63.3755 50.931 63.513 50.9035 63.6161 50.8828L64.1112 53.0693C63.9462 53.1312 63.7158 53.1931 63.4202 53.255C63.1245 53.3238 62.7498 53.3581 62.296 53.3581C61.6084 53.3581 60.9346 53.2103 60.2745 52.9146C59.6213 52.619 59.0781 52.1686 58.6449 51.5635C58.2186 50.9585 58.0055 50.1953 58.0055 49.2739V33.5145ZM86.8736 40.8579L84.6871 41.4767C84.5496 41.1123 84.3467 40.7582 84.0786 40.4144C83.8173 40.0637 83.4598 39.7749 83.006 39.548C82.5522 39.3211 81.9712 39.2077 81.2629 39.2077C80.2935 39.2077 79.4855 39.4312 78.8392 39.8781C78.1998 40.3181 77.88 40.8785 77.88 41.5592C77.88 42.1643 78.1001 42.6422 78.5401 42.9928C78.9802 43.3435 79.6678 43.6357 80.6029 43.8695L82.9544 44.4471C84.3708 44.7909 85.4263 45.3169 86.1207 46.0251C86.8152 46.7264 87.1624 47.6306 87.1624 48.7376C87.1624 49.6452 86.9011 50.4565 86.3786 51.1716C85.8629 51.8867 85.1409 52.4505 84.2127 52.8631C83.2844 53.2756 82.2049 53.4819 80.9742 53.4819C79.3583 53.4819 78.021 53.1312 76.9621 52.4299C75.9032 51.7286 75.2328 50.7041 74.9509 49.3564L77.2612 48.7788C77.4812 49.6314 77.8972 50.2709 78.5092 50.6972C79.128 51.1235 79.9359 51.3366 80.9329 51.3366C82.0674 51.3366 82.9681 51.096 83.6351 50.6147C84.3089 50.1265 84.6458 49.542 84.6458 48.8613C84.6458 48.3113 84.4533 47.8506 84.0683 47.4793C83.6832 47.1011 83.0919 46.8192 82.2943 46.6336L79.654 46.0148C78.2032 45.671 77.1374 45.1381 76.4567 44.4161C75.7829 43.6873 75.446 42.7762 75.446 41.683C75.446 40.7891 75.697 39.9984 76.1989 39.3108C76.7077 38.6232 77.3987 38.0835 78.272 37.6916C79.1521 37.2996 80.1491 37.1037 81.2629 37.1037C82.8306 37.1037 84.0614 37.4475 84.9553 38.1351C85.856 38.8226 86.4954 39.7302 86.8736 40.8579ZM97.7159 37.31V39.3727H89.5062V37.31H97.7159ZM91.899 33.5145H94.333V48.6138C94.333 49.3014 94.4327 49.8171 94.6321 50.1609C94.8384 50.4978 95.0997 50.7247 95.416 50.8416C95.7391 50.9516 96.0795 51.0066 96.437 51.0066C96.7052 51.0066 96.9252 50.9928 97.0971 50.9653C97.269 50.931 97.4065 50.9035 97.5097 50.8828L98.0047 53.0693C97.8397 53.1312 97.6094 53.1931 97.3137 53.255C97.018 53.3238 96.6433 53.3581 96.1895 53.3581C95.5019 53.3581 94.8281 53.2103 94.168 52.9146C93.5148 52.619 92.9716 52.1686 92.5384 51.5635C92.1121 50.9585 91.899 50.1953 91.899 49.2739V33.5145ZM106.039 53.5231C105.035 53.5231 104.124 53.3341 103.306 52.9559C102.488 52.5708 101.838 52.0173 101.357 51.2954C100.875 50.5665 100.635 49.6864 100.635 48.6551C100.635 47.7475 100.813 47.0117 101.171 46.4479C101.529 45.8772 102.006 45.4303 102.605 45.1071C103.203 44.784 103.863 44.5433 104.585 44.3852C105.314 44.2202 106.046 44.0895 106.782 43.9933C107.744 43.8695 108.525 43.7767 109.123 43.7148C109.728 43.646 110.168 43.5326 110.443 43.3744C110.725 43.2163 110.866 42.9413 110.866 42.5493V42.4668C110.866 41.4492 110.587 40.6585 110.031 40.0947C109.48 39.5309 108.645 39.2489 107.524 39.2489C106.362 39.2489 105.451 39.5033 104.791 40.0122C104.131 40.521 103.667 41.0642 103.399 41.6417L101.089 40.8166C101.501 39.854 102.051 39.1045 102.739 38.5682C103.433 38.025 104.19 37.6469 105.008 37.4337C105.833 37.2137 106.644 37.1037 107.442 37.1037C107.951 37.1037 108.535 37.1656 109.195 37.2893C109.862 37.4062 110.505 37.6503 111.124 38.0216C111.749 38.3929 112.269 38.9533 112.681 39.7027C113.094 40.4522 113.3 41.4561 113.3 42.7144V53.1519H110.866V51.0066H110.742C110.577 51.3504 110.302 51.7182 109.917 52.1102C109.532 52.5021 109.02 52.8356 108.38 53.1106C107.741 53.3856 106.96 53.5231 106.039 53.5231ZM106.41 51.3366C107.373 51.3366 108.184 51.1476 108.844 50.7694C109.511 50.3912 110.013 49.903 110.35 49.3048C110.694 48.7066 110.866 48.0775 110.866 47.4174V45.1897C110.763 45.3134 110.536 45.4269 110.185 45.53C109.841 45.6263 109.443 45.7122 108.989 45.7878C108.542 45.8566 108.105 45.9185 107.679 45.9735C107.26 46.0216 106.919 46.0629 106.658 46.0973C106.025 46.1798 105.434 46.3138 104.884 46.4995C104.341 46.6783 103.901 46.9499 103.564 47.3143C103.234 47.6718 103.069 48.16 103.069 48.7788C103.069 49.6246 103.382 50.264 104.007 50.6972C104.64 51.1235 105.441 51.3366 106.41 51.3366ZM117.743 53.1519V37.31H120.094V39.7027H120.259C120.548 38.9189 121.071 38.2829 121.827 37.7947C122.583 37.3065 123.436 37.0624 124.385 37.0624C124.563 37.0624 124.787 37.0659 125.055 37.0727C125.323 37.0796 125.526 37.0899 125.664 37.1037V39.579C125.581 39.5584 125.392 39.5274 125.096 39.4862C124.808 39.438 124.502 39.414 124.178 39.414C123.408 39.414 122.721 39.5755 122.116 39.8987C121.517 40.215 121.043 40.655 120.692 41.2189C120.349 41.7758 120.177 42.4118 120.177 43.1269V53.1519H117.743ZM136.431 37.31V39.3727H128.221V37.31H136.431ZM130.614 33.5145H133.048V48.6138C133.048 49.3014 133.148 49.8171 133.347 50.1609C133.554 50.4978 133.815 50.7247 134.131 50.8416C134.454 50.9516 134.795 51.0066 135.152 51.0066C135.42 51.0066 135.64 50.9928 135.812 50.9653C135.984 50.931 136.122 50.9035 136.225 50.8828L136.72 53.0693C136.555 53.1312 136.325 53.1931 136.029 53.255C135.733 53.3238 135.358 53.3581 134.905 53.3581C134.217 53.3581 133.543 53.2103 132.883 52.9146C132.23 52.619 131.687 52.1686 131.254 51.5635C130.827 50.9585 130.614 50.1953 130.614 49.2739V33.5145ZM146.564 53.4819C145.038 53.4819 143.721 53.145 142.614 52.4711C141.514 51.7904 140.665 50.8416 140.067 49.6246C139.475 48.4007 139.18 46.9774 139.18 45.3547C139.18 43.732 139.475 42.3018 140.067 41.0642C140.665 39.8196 141.497 38.8501 142.563 38.1557C143.635 37.4544 144.887 37.1037 146.317 37.1037C147.142 37.1037 147.957 37.2412 148.761 37.5162C149.566 37.7913 150.298 38.2382 150.958 38.857C151.618 39.469 152.144 40.2803 152.536 41.2911C152.928 42.3018 153.124 43.5463 153.124 45.0246V46.056H140.912V43.952H150.649C150.649 43.0581 150.47 42.2606 150.112 41.5592C149.762 40.8579 149.26 40.3044 148.606 39.8987C147.96 39.493 147.197 39.2902 146.317 39.2902C145.347 39.2902 144.508 39.5308 143.8 40.0122C143.099 40.4866 142.559 41.1054 142.181 41.8686C141.803 42.6318 141.614 43.4501 141.614 44.3233V45.726C141.614 46.9224 141.82 47.9365 142.233 48.7685C142.652 49.5936 143.233 50.2228 143.976 50.6559C144.718 51.0822 145.581 51.2954 146.564 51.2954C147.204 51.2954 147.781 51.206 148.297 51.0272C148.82 50.8416 149.27 50.5665 149.648 50.2021C150.026 49.8308 150.319 49.3702 150.525 48.8201L152.876 49.4802C152.629 50.2778 152.213 50.9791 151.628 51.5842C151.044 52.1824 150.322 52.6499 149.463 52.9868C148.603 53.3169 147.637 53.4819 146.564 53.4819ZM162.808 53.4819C161.488 53.4819 160.323 53.1484 159.312 52.4815C158.301 51.8076 157.511 50.8588 156.94 49.6349C156.369 48.4041 156.084 46.9499 156.084 45.2722C156.084 43.6082 156.369 42.1643 156.94 40.9404C157.511 39.7165 158.305 38.7711 159.322 38.1041C160.34 37.4372 161.516 37.1037 162.85 37.1037C163.881 37.1037 164.696 37.2756 165.294 37.6194C165.899 37.9563 166.36 38.3413 166.676 38.7745C166.999 39.2008 167.25 39.5515 167.429 39.8265H167.635V32.0293H170.069V53.1519H167.718V50.7178H167.429C167.25 51.0066 166.996 51.371 166.666 51.8111C166.336 52.2442 165.865 52.6327 165.253 52.9765C164.641 53.3134 163.826 53.4819 162.808 53.4819ZM163.139 51.2954C164.115 51.2954 164.94 51.041 165.614 50.5322C166.288 50.0165 166.8 49.3048 167.151 48.3972C167.501 47.4827 167.677 46.4273 167.677 45.2309C167.677 44.0483 167.505 43.0135 167.161 42.1265C166.817 41.2326 166.308 40.5382 165.634 40.0431C164.961 39.5412 164.129 39.2902 163.139 39.2902C162.107 39.2902 161.248 39.5549 160.56 40.0844C159.879 40.6069 159.367 41.3186 159.023 42.2193C158.686 43.1132 158.518 44.117 158.518 45.2309C158.518 46.3585 158.69 47.383 159.034 48.3044C159.384 49.2189 159.9 49.9477 160.581 50.4909C161.268 51.0272 162.121 51.2954 163.139 51.2954Z" fill="white"/>
</svg>
