<svg width="29" height="34" viewBox="0 0 29 34" fill="none" xmlns="http://www.w3.org/2000/svg">
<path d="M14.2177 0.870117C10.7752 0.870117 7.9495 3.69581 7.9495 7.13829V8.39192H1.75899L1.68126 9.56783L0.427613 32.1332L0.348633 33.4646H28.0856L28.0079 32.132L26.7542 9.56658L26.6752 8.39192H20.486V7.13829C20.486 3.69581 17.6603 0.870117 14.2177 0.870117ZM14.2177 3.37739C15.2152 3.37739 16.1718 3.77362 16.8771 4.47893C17.5824 5.18423 17.9787 6.14083 17.9787 7.13829V8.39192H10.4568V7.13829C10.4568 6.14083 10.853 5.18423 11.5583 4.47893C12.2637 3.77362 13.2203 3.37739 14.2177 3.37739ZM4.10958 10.8992H7.9495V14.6601H10.4568V10.8992H17.9787V14.6601H20.486V10.8992H24.3259L25.4228 30.9573H3.01389L4.10958 10.8992Z" fill="#111111"/>
</svg>
