<svg width="92" height="92" viewBox="0 0 92 92" fill="none" xmlns="http://www.w3.org/2000/svg">
<g clip-path="url(#clip0_151_7991)">
<path d="M91.6993 45.6866C91.6993 20.6593 71.3689 0.351562 46.3189 0.351562C21.2689 0.351562 0.938477 20.6593 0.938477 45.6866C0.938477 59.4709 7.20098 71.8938 17.0032 80.2325C17.0939 80.3232 17.1847 80.3232 17.1847 80.414C18.0015 81.0493 18.8184 81.6846 19.726 82.32C20.1798 82.5923 20.5428 82.9496 20.9966 83.3127C28.4961 88.3974 37.349 91.1145 46.4097 91.1124C55.4704 91.1145 64.3232 88.3974 71.8227 83.3127C72.2765 83.0404 72.6396 82.683 73.0934 82.4051C73.9102 81.7754 74.8178 81.1401 75.6347 80.5048C75.7254 80.414 75.8162 80.414 75.8162 80.3232C85.4368 71.8881 91.6993 59.4709 91.6993 45.6866ZM46.3189 85.4002C37.7874 85.4002 29.982 82.6773 23.5379 78.145C23.6287 77.4189 23.8102 76.6985 23.9917 75.9724C24.5325 74.0046 25.3257 72.1151 26.3515 70.3509C27.3499 68.6264 28.5298 67.0835 29.982 65.7221C31.3434 64.3607 32.9771 63.0957 34.6108 62.0973C36.3352 61.0989 38.1504 60.3729 40.1472 59.8283C42.1594 59.2859 44.2348 59.0131 46.3189 59.0171C52.5057 58.9733 58.4651 61.3465 62.9282 65.6313C65.0157 67.7188 66.6493 70.1694 67.8292 72.9773C68.4646 74.611 68.9184 76.3354 69.1907 78.145C62.4924 82.8541 54.5069 85.3872 46.3189 85.4002ZM32.4325 43.4233C31.6328 41.5923 31.2306 39.6125 31.2526 37.6146C31.2526 35.6235 31.6157 33.6268 32.4325 31.8116C33.2493 29.9963 34.3385 28.3683 35.6999 27.0069C37.0613 25.6455 38.695 24.562 40.5102 23.7452C42.3254 22.9283 44.3222 22.5653 46.3189 22.5653C48.4064 22.5653 50.3124 22.9283 52.1276 23.7452C53.9428 24.562 55.5765 25.6512 56.9379 27.0069C58.2993 28.3683 59.3885 30.002 60.2053 31.8116C61.0222 33.6268 61.3852 35.6235 61.3852 37.6146C61.3852 39.7021 61.0222 41.6081 60.2053 43.4176C59.417 45.206 58.3098 46.8359 56.9379 48.2279C55.5455 49.5978 53.9155 50.703 52.1276 51.4896C48.3771 53.031 44.17 53.031 40.4195 51.4896C38.6315 50.703 37.0016 49.5978 35.6091 48.2279C34.2353 46.8562 33.1546 45.2253 32.4325 43.4233ZM74.5455 73.5218C74.5455 73.3403 74.4548 73.2496 74.4548 73.068C73.5621 70.2285 72.2464 67.5397 70.5521 65.0924C68.8561 62.627 66.7718 60.4527 64.3803 58.6541C62.5539 57.2801 60.5742 56.1227 58.4809 55.2052C59.4332 54.5769 60.3156 53.8486 61.1129 53.0326C62.4661 51.6967 63.6544 50.2037 64.6526 48.5853C66.6627 45.2828 67.7008 41.4804 67.6477 37.6146C67.6758 34.7529 67.1199 31.9155 66.014 29.2759C64.9222 26.7326 63.3506 24.4234 61.3852 22.4745C59.4227 20.546 57.1131 19.0063 54.5782 17.9365C51.9342 16.8326 49.0931 16.2786 46.2282 16.3085C43.3628 16.2804 40.5217 16.8363 37.8782 17.9422C35.3213 19.0097 33.0061 20.5821 31.0711 22.5653C29.1427 24.5256 27.6029 26.8334 26.533 29.3667C25.4272 32.0062 24.8713 34.8436 24.8993 37.7053C24.8993 39.7021 25.1716 41.6081 25.7162 43.4176C26.2608 45.3236 26.9868 47.048 27.9852 48.6761C28.8928 50.3097 30.1635 51.7619 31.5249 53.1233C32.3417 53.9402 33.2493 54.6606 34.2477 55.2959C32.1479 56.2379 30.1676 57.4261 28.3483 58.8356C25.9885 60.6508 23.901 62.8234 22.1765 65.1832C20.4649 67.6203 19.1478 70.3118 18.2738 73.1588C18.183 73.3403 18.183 73.5218 18.183 73.6126C11.0129 66.3574 6.56565 56.5666 6.56565 45.6866C6.56565 23.8359 24.4455 5.97306 46.3189 5.97306C68.1923 5.97306 86.0722 23.8359 86.0722 45.6866C86.0603 56.1239 81.916 66.1318 74.5455 73.5218Z" fill="#B27735"/>
</g>
<defs>
<clipPath id="clip0_151_7991">
<rect width="90.7609" height="90.7609" fill="white" transform="translate(0.938477 0.351562)"/>
</clipPath>
</defs>
</svg>
