<svg width="228" height="62" viewBox="0 0 228 62" fill="none" xmlns="http://www.w3.org/2000/svg">
<path d="M197.471 56.3053C211.395 56.3053 222.682 45.0181 222.682 31.0939C222.682 17.1697 211.395 5.88257 197.471 5.88257C183.547 5.88257 172.26 17.1697 172.26 31.0939C172.26 45.0181 183.547 56.3053 197.471 56.3053Z" stroke="white" stroke-width="2.42029" stroke-linejoin="round"/>
<path d="M193.689 42.439L205.035 31.0939L193.689 19.7488" stroke="white" stroke-width="2.42029" stroke-linecap="round" stroke-linejoin="round"/>
<path d="M17.2138 27.6301C16.9869 26.9357 16.6878 26.3134 16.3165 25.7633C15.9521 25.2064 15.5155 24.732 15.0067 24.34C14.5048 23.9481 13.9341 23.649 13.2946 23.4427C12.6552 23.2365 11.9538 23.1333 11.1906 23.1333C9.93921 23.1333 8.80126 23.4565 7.77676 24.1028C6.75227 24.7491 5.93748 25.7014 5.33241 26.9597C4.72734 28.218 4.4248 29.7616 4.4248 31.5906C4.4248 33.4196 4.73077 34.9632 5.34272 36.2215C5.95467 37.4797 6.78321 38.432 7.82833 39.0784C8.87346 39.7247 10.0492 40.0479 11.3556 40.0479C12.5658 40.0479 13.6315 39.79 14.5529 39.2743C15.4811 38.7518 16.2031 38.016 16.7188 37.0672C17.2413 36.1114 17.5026 34.9872 17.5026 33.6946L18.2865 33.8596H11.9332V31.5906H19.9779V33.8596C19.9779 35.5992 19.6066 37.1119 18.864 38.3977C18.1283 39.6834 17.1107 40.6804 15.8112 41.3886C14.5185 42.09 13.0333 42.4406 11.3556 42.4406C9.48541 42.4406 7.84208 42.0006 6.42567 41.1205C5.01612 40.2404 3.91599 38.989 3.12527 37.3663C2.34143 35.7436 1.9495 33.8184 1.9495 31.5906C1.9495 29.9198 2.17297 28.4174 2.6199 27.0835C3.0737 25.7427 3.71315 24.6013 4.53825 23.6593C5.36335 22.7173 6.33972 21.9954 7.46735 21.4934C8.59499 20.9915 9.83607 20.7405 11.1906 20.7405C12.3045 20.7405 13.3427 20.909 14.3054 21.2459C15.2748 21.576 16.1378 22.0469 16.8941 22.6589C17.6573 23.264 18.2933 23.9894 18.8021 24.8351C19.311 25.6739 19.6616 26.6056 19.8541 27.6301H17.2138ZM30.6707 42.4819C29.1442 42.4819 27.8275 42.145 26.7205 41.4711C25.6204 40.7904 24.7712 39.8416 24.173 38.6246C23.5817 37.4007 23.286 35.9774 23.286 34.3547C23.286 32.732 23.5817 31.3018 24.173 30.0642C24.7712 28.8196 25.6032 27.8501 26.6689 27.1557C27.7416 26.4544 28.993 26.1037 30.4231 26.1037C31.2482 26.1037 32.063 26.2412 32.8675 26.5162C33.672 26.7913 34.4042 27.2382 35.0643 27.857C35.7244 28.469 36.2504 29.2803 36.6423 30.2911C37.0343 31.3018 37.2302 32.5463 37.2302 34.0246V35.056H25.0188V32.952H34.7549C34.7549 32.0581 34.5761 31.2606 34.2186 30.5592C33.8679 29.8579 33.366 29.3044 32.7128 28.8987C32.0665 28.493 31.3033 28.2902 30.4231 28.2902C29.4537 28.2902 28.6148 28.5308 27.9066 29.0122C27.2053 29.4866 26.6655 30.1054 26.2873 30.8686C25.9092 31.6318 25.7201 32.4501 25.7201 33.3233V34.726C25.7201 35.9224 25.9264 36.9365 26.3389 37.7685C26.7583 38.5936 27.3393 39.2228 28.0819 39.6559C28.8245 40.0822 29.6874 40.2954 30.6707 40.2954C31.3101 40.2954 31.8877 40.206 32.4034 40.0272C32.9259 39.8416 33.3763 39.5665 33.7545 39.2021C34.1327 38.8308 34.4249 38.3702 34.6312 37.8201L36.9827 38.4802C36.7352 39.2778 36.3192 39.9791 35.7347 40.5842C35.1503 41.1824 34.4283 41.6499 33.5688 41.9868C32.7094 42.3169 31.7433 42.4819 30.6707 42.4819ZM47.8224 26.31V28.3727H39.6127V26.31H47.8224ZM42.0055 22.5145H44.4395V37.6138C44.4395 38.3014 44.5392 38.8171 44.7386 39.1609C44.9449 39.4978 45.2062 39.7247 45.5225 39.8416C45.8456 39.9516 46.186 40.0066 46.5435 40.0066C46.8117 40.0066 47.0317 39.9928 47.2036 39.9653C47.3755 39.931 47.513 39.9035 47.6161 39.8828L48.1112 42.0693C47.9462 42.1312 47.7158 42.1931 47.4202 42.255C47.1245 42.3238 46.7498 42.3581 46.296 42.3581C45.6084 42.3581 44.9346 42.2103 44.2745 41.9146C43.6213 41.619 43.0781 41.1686 42.6449 40.5635C42.2186 39.9585 42.0055 39.1953 42.0055 38.2739V22.5145ZM70.8736 29.8579L68.6871 30.4767C68.5496 30.1123 68.3467 29.7582 68.0786 29.4144C67.8173 29.0637 67.4598 28.7749 67.006 28.548C66.5522 28.3211 65.9712 28.2077 65.2629 28.2077C64.2935 28.2077 63.4855 28.4312 62.8392 28.8781C62.1998 29.3181 61.88 29.8785 61.88 30.5592C61.88 31.1643 62.1001 31.6422 62.5401 31.9928C62.9802 32.3435 63.6678 32.6357 64.6029 32.8695L66.9544 33.4471C68.3708 33.7909 69.4263 34.3169 70.1207 35.0251C70.8152 35.7264 71.1624 36.6306 71.1624 37.7376C71.1624 38.6452 70.9011 39.4565 70.3786 40.1716C69.8629 40.8867 69.1409 41.4505 68.2127 41.8631C67.2844 42.2756 66.2049 42.4819 64.9742 42.4819C63.3583 42.4819 62.021 42.1312 60.9621 41.4299C59.9032 40.7286 59.2328 39.7041 58.9509 38.3564L61.2612 37.7788C61.4812 38.6314 61.8972 39.2709 62.5092 39.6972C63.128 40.1235 63.9359 40.3366 64.9329 40.3366C66.0674 40.3366 66.9681 40.096 67.6351 39.6147C68.3089 39.1265 68.6458 38.542 68.6458 37.8613C68.6458 37.3113 68.4533 36.8506 68.0683 36.4793C67.6832 36.1011 67.0919 35.8192 66.2943 35.6336L63.654 35.0148C62.2032 34.671 61.1374 34.1381 60.4567 33.4161C59.7829 32.6873 59.446 31.7762 59.446 30.683C59.446 29.7891 59.697 28.9984 60.1989 28.3108C60.7077 27.6232 61.3987 27.0835 62.272 26.6916C63.1521 26.2996 64.1491 26.1037 65.2629 26.1037C66.8306 26.1037 68.0614 26.4475 68.9553 27.1351C69.856 27.8226 70.4954 28.7302 70.8736 29.8579ZM81.7159 26.31V28.3727H73.5062V26.31H81.7159ZM75.899 22.5145H78.333V37.6138C78.333 38.3014 78.4327 38.8171 78.6321 39.1609C78.8384 39.4978 79.0997 39.7247 79.416 39.8416C79.7391 39.9516 80.0795 40.0066 80.437 40.0066C80.7052 40.0066 80.9252 39.9928 81.0971 39.9653C81.269 39.931 81.4065 39.9035 81.5097 39.8828L82.0047 42.0693C81.8397 42.1312 81.6094 42.1931 81.3137 42.255C81.018 42.3238 80.6433 42.3581 80.1895 42.3581C79.5019 42.3581 78.8281 42.2103 78.168 41.9146C77.5148 41.619 76.9716 41.1686 76.5384 40.5635C76.1121 39.9585 75.899 39.1953 75.899 38.2739V22.5145ZM90.0391 42.5231C89.0352 42.5231 88.1242 42.3341 87.306 41.9559C86.4877 41.5708 85.838 41.0173 85.3567 40.2954C84.8754 39.5665 84.6347 38.6864 84.6347 37.6551C84.6347 36.7475 84.8135 36.0117 85.171 35.4479C85.5286 34.8772 86.0064 34.4303 86.6046 34.1071C87.2028 33.784 87.8629 33.5433 88.5849 33.3852C89.3137 33.2202 90.046 33.0895 90.7817 32.9933C91.7443 32.8695 92.5247 32.7767 93.1229 32.7148C93.728 32.646 94.168 32.5326 94.4431 32.3744C94.725 32.2163 94.8659 31.9413 94.8659 31.5493V31.4668C94.8659 30.4492 94.5875 29.6585 94.0305 29.0947C93.4805 28.5309 92.645 28.2489 91.5243 28.2489C90.3623 28.2489 89.4512 28.5033 88.7911 29.0122C88.1311 29.521 87.667 30.0642 87.3988 30.6417L85.0885 29.8166C85.5011 28.854 86.0511 28.1045 86.7387 27.5682C87.4332 27.025 88.1895 26.6469 89.0077 26.4337C89.8328 26.2137 90.6442 26.1037 91.4418 26.1037C91.9506 26.1037 92.535 26.1656 93.1951 26.2893C93.8621 26.4062 94.505 26.6503 95.1238 27.0216C95.7495 27.3929 96.2686 27.9533 96.6812 28.7027C97.0937 29.4522 97.3 30.4561 97.3 31.7144V42.1519H94.8659V40.0066H94.7422C94.5772 40.3504 94.3021 40.7182 93.9171 41.1102C93.532 41.5021 93.0198 41.8356 92.3803 42.1106C91.7409 42.3856 90.9605 42.5231 90.0391 42.5231ZM90.4104 40.3366C91.373 40.3366 92.1844 40.1476 92.8444 39.7694C93.5114 39.3912 94.0133 38.903 94.3503 38.3048C94.694 37.7066 94.8659 37.0775 94.8659 36.4174V34.1897C94.7628 34.3134 94.5359 34.4269 94.1852 34.53C93.8414 34.6263 93.4426 34.7122 92.9888 34.7878C92.5419 34.8566 92.1053 34.9185 91.679 34.9735C91.2596 35.0216 90.9192 35.0629 90.6579 35.0973C90.0254 35.1798 89.434 35.3138 88.884 35.4995C88.3408 35.6783 87.9007 35.9499 87.5638 36.3143C87.2338 36.6718 87.0688 37.16 87.0688 37.7788C87.0688 38.6246 87.3816 39.264 88.0073 39.6972C88.6399 40.1235 89.4409 40.3366 90.4104 40.3366ZM101.743 42.1519V26.31H104.094V28.7027H104.259C104.548 27.9189 105.071 27.2829 105.827 26.7947C106.583 26.3065 107.436 26.0624 108.385 26.0624C108.563 26.0624 108.787 26.0659 109.055 26.0727C109.323 26.0796 109.526 26.0899 109.664 26.1037V28.579C109.581 28.5584 109.392 28.5274 109.096 28.4862C108.808 28.438 108.502 28.414 108.178 28.414C107.408 28.414 106.721 28.5755 106.116 28.8987C105.517 29.215 105.043 29.655 104.692 30.2189C104.349 30.7758 104.177 31.4118 104.177 32.1269V42.1519H101.743ZM120.431 26.31V28.3727H112.221V26.31H120.431ZM114.614 22.5145H117.048V37.6138C117.048 38.3014 117.148 38.8171 117.347 39.1609C117.554 39.4978 117.815 39.7247 118.131 39.8416C118.454 39.9516 118.795 40.0066 119.152 40.0066C119.42 40.0066 119.64 39.9928 119.812 39.9653C119.984 39.931 120.122 39.9035 120.225 39.8828L120.72 42.0693C120.555 42.1312 120.325 42.1931 120.029 42.255C119.733 42.3238 119.358 42.3581 118.905 42.3581C118.217 42.3581 117.543 42.2103 116.883 41.9146C116.23 41.619 115.687 41.1686 115.254 40.5635C114.827 39.9585 114.614 39.1953 114.614 38.2739V22.5145ZM130.564 42.4819C129.038 42.4819 127.721 42.145 126.614 41.4711C125.514 40.7904 124.665 39.8416 124.067 38.6246C123.475 37.4007 123.18 35.9774 123.18 34.3547C123.18 32.732 123.475 31.3018 124.067 30.0642C124.665 28.8196 125.497 27.8501 126.563 27.1557C127.635 26.4544 128.887 26.1037 130.317 26.1037C131.142 26.1037 131.957 26.2412 132.761 26.5162C133.566 26.7913 134.298 27.2382 134.958 27.857C135.618 28.469 136.144 29.2803 136.536 30.2911C136.928 31.3018 137.124 32.5463 137.124 34.0246V35.056H124.912V32.952H134.649C134.649 32.0581 134.47 31.2606 134.112 30.5592C133.762 29.8579 133.26 29.3044 132.606 28.8987C131.96 28.493 131.197 28.2902 130.317 28.2902C129.347 28.2902 128.508 28.5308 127.8 29.0122C127.099 29.4866 126.559 30.1054 126.181 30.8686C125.803 31.6318 125.614 32.4501 125.614 33.3233V34.726C125.614 35.9224 125.82 36.9365 126.233 37.7685C126.652 38.5936 127.233 39.2228 127.976 39.6559C128.718 40.0822 129.581 40.2954 130.564 40.2954C131.204 40.2954 131.781 40.206 132.297 40.0272C132.82 39.8416 133.27 39.5665 133.648 39.2021C134.026 38.8308 134.319 38.3702 134.525 37.8201L136.876 38.4802C136.629 39.2778 136.213 39.9791 135.628 40.5842C135.044 41.1824 134.322 41.6499 133.463 41.9868C132.603 42.3169 131.637 42.4819 130.564 42.4819ZM146.808 42.4819C145.488 42.4819 144.323 42.1484 143.312 41.4815C142.301 40.8076 141.511 39.8588 140.94 38.6349C140.369 37.4041 140.084 35.9499 140.084 34.2722C140.084 32.6082 140.369 31.1643 140.94 29.9404C141.511 28.7165 142.305 27.7711 143.322 27.1041C144.34 26.4372 145.516 26.1037 146.85 26.1037C147.881 26.1037 148.696 26.2756 149.294 26.6194C149.899 26.9563 150.36 27.3413 150.676 27.7745C150.999 28.2008 151.25 28.5515 151.429 28.8265H151.635V21.0293H154.069V42.1519H151.718V39.7178H151.429C151.25 40.0066 150.996 40.371 150.666 40.8111C150.336 41.2442 149.865 41.6327 149.253 41.9765C148.641 42.3134 147.826 42.4819 146.808 42.4819ZM147.139 40.2954C148.115 40.2954 148.94 40.041 149.614 39.5322C150.288 39.0165 150.8 38.3048 151.151 37.3972C151.501 36.4827 151.677 35.4273 151.677 34.2309C151.677 33.0483 151.505 32.0135 151.161 31.1265C150.817 30.2326 150.308 29.5382 149.634 29.0431C148.961 28.5412 148.129 28.2902 147.139 28.2902C146.107 28.2902 145.248 28.5549 144.56 29.0844C143.879 29.6069 143.367 30.3186 143.023 31.2193C142.686 32.1132 142.518 33.117 142.518 34.2309C142.518 35.3585 142.69 36.383 143.034 37.3044C143.384 38.2189 143.9 38.9477 144.581 39.4909C145.268 40.0272 146.121 40.2954 147.139 40.2954Z" fill="white"/>
</svg>
