<svg width="166" height="88" viewBox="0 0 166 88" fill="none" xmlns="http://www.w3.org/2000/svg">
<path d="M20.1418 24.3754C20.1418 25.4816 19.922 26.5665 19.4824 27.6301C19.0569 28.6937 18.3762 29.6438 17.4403 30.4805C16.5043 31.3172 15.306 31.9908 13.8453 32.5014C12.3846 33.0119 10.6332 33.2672 8.59107 33.2672C7.39983 33.2672 6.32913 33.1821 5.37898 33.0119C4.44301 32.8417 3.63467 32.6574 2.95397 32.4588C2.17399 32.2177 1.47201 31.9483 0.848029 31.6505V23.9287H3.59213L4.16647 28.8638C4.19484 29.034 4.27992 29.2184 4.42174 29.4169C4.57773 29.6155 4.73373 29.7502 4.88972 29.8211L5.25135 30.0125C5.46407 30.1118 5.75479 30.2253 6.1235 30.3529C6.49222 30.4663 6.93893 30.5727 7.46365 30.672C8.00254 30.7712 8.61234 30.8209 9.29304 30.8209C10.2148 30.8209 11.0657 30.7074 11.8457 30.4805C12.6399 30.2394 13.3206 29.8991 13.8878 29.4595C14.4551 29.0198 14.8947 28.4809 15.2067 27.8428C15.5329 27.2046 15.6959 26.4814 15.6959 25.673C15.6959 24.7938 15.4407 24.028 14.9301 23.3756C14.4338 22.7091 13.8027 22.1206 13.0369 21.6101C12.2853 21.0854 11.4628 20.6174 10.5694 20.2061C9.67594 19.7948 8.83215 19.3978 8.03799 19.0149C7.14456 18.5894 6.28659 18.1498 5.46407 17.696C4.65573 17.2422 3.93957 16.7175 3.31559 16.1219C2.70579 15.5263 2.21653 14.8314 1.84782 14.0372C1.49328 13.2289 1.31602 12.2716 1.31602 11.1655C1.31602 9.87497 1.57128 8.705 2.08181 7.65558C2.59234 6.60616 3.29432 5.71273 4.18775 4.9753C5.09535 4.22369 6.15896 3.64934 7.37856 3.25226C8.61234 2.841 9.94539 2.63537 11.3777 2.63537C12.1577 2.63537 12.888 2.67792 13.5687 2.763C14.2494 2.84809 14.8876 2.96154 15.4832 3.10336C16.093 3.23099 16.6603 3.37989 17.185 3.55007C17.7097 3.70607 18.206 3.85497 18.674 3.99678L19.0569 4.12442V10.9102H16.5681L15.9087 6.74088C15.8803 6.54234 15.7881 6.40053 15.6321 6.31544C15.4903 6.21617 15.3556 6.10272 15.228 5.97509C15.1712 5.93254 15.0578 5.86164 14.8876 5.76237C14.7174 5.64892 14.4763 5.53546 14.1644 5.42201C13.8665 5.30856 13.4907 5.20929 13.0369 5.1242C12.5831 5.03912 12.0513 4.99657 11.4415 4.99657C10.5623 4.99657 9.77521 5.1242 9.08032 5.37947C8.38544 5.63473 7.79691 5.99636 7.31474 6.46435C6.83257 6.91815 6.45677 7.45704 6.18732 8.08102C5.93206 8.705 5.80442 9.38571 5.80442 10.1231C5.80442 10.7897 5.93206 11.3995 6.18732 11.9525C6.45677 12.4914 6.84676 12.9949 7.35729 13.4629C7.882 13.9167 8.52016 14.3421 9.27177 14.7392C10.0234 15.1363 10.8885 15.5192 11.867 15.8879C13.1858 16.3842 14.3558 16.9018 15.3769 17.4407C16.4121 17.9796 17.2772 18.5823 17.9721 19.2489C18.6811 19.9154 19.22 20.667 19.5887 21.5037C19.9574 22.3262 20.1418 23.2835 20.1418 24.3754ZM41.733 30.3954C41.1232 30.7783 40.485 31.1329 39.8185 31.459C39.1661 31.7852 38.4854 32.0688 37.7764 32.3099C37.0815 32.551 36.3724 32.7425 35.6492 32.8843C34.9259 33.0261 34.1956 33.097 33.4581 33.097C32.1393 33.097 30.87 32.8772 29.6504 32.4376C28.4308 31.9837 27.353 31.3101 26.4171 30.4167C25.4953 29.5233 24.7508 28.4029 24.1835 27.0557C23.6304 25.6943 23.3539 24.106 23.3539 22.2908C23.3539 20.589 23.6092 19.0503 24.1197 17.6747C24.6302 16.285 25.3393 15.1008 26.2469 14.1223C27.1545 13.1296 28.2323 12.3709 29.4802 11.8462C30.7282 11.3073 32.0967 11.0378 33.5858 11.0378C34.933 11.0378 36.1171 11.2647 37.1382 11.7185C38.1593 12.1582 39.0101 12.7751 39.6908 13.5692C40.3716 14.3492 40.8821 15.2923 41.2224 16.3984C41.5628 17.4904 41.733 18.6816 41.733 19.9721V20.5465C41.733 20.7734 41.7188 20.9861 41.6904 21.1846H27.5658C27.5658 22.2908 27.6792 23.3969 27.9061 24.5031C28.1472 25.6092 28.5443 26.6019 29.0974 27.4812C29.6504 28.3604 30.3949 29.0766 31.3309 29.6296C32.2669 30.1685 33.4369 30.438 34.8408 30.438C35.4648 30.438 36.0817 30.36 36.6915 30.204C37.3013 30.0338 37.8969 29.8211 38.4783 29.5658C39.074 29.3106 39.6412 29.0269 40.1801 28.7149C40.719 28.3888 41.2366 28.0626 41.733 27.7364V30.3954ZM37.3722 18.2703C37.3722 17.5471 37.2871 16.8806 37.1169 16.2708C36.9467 15.6468 36.6844 15.1079 36.3299 14.6541C35.9895 14.2003 35.5499 13.8458 35.011 13.5905C34.4863 13.321 33.8623 13.1863 33.139 13.1863C32.4158 13.1863 31.7422 13.3281 31.1182 13.6118C30.4942 13.8812 29.9411 14.2783 29.459 14.803C28.991 15.3277 28.6081 15.9659 28.3103 16.7175C28.0267 17.4549 27.8565 18.2916 27.7998 19.2276H37.3722V18.2703ZM58.2188 32.5652L57.6445 29.9913C56.8787 30.5727 56.0916 31.0903 55.2833 31.5441C54.9287 31.7427 54.5529 31.9341 54.1559 32.1185C53.7588 32.3028 53.3475 32.4659 52.9221 32.6077C52.5108 32.7637 52.0854 32.8843 51.6458 32.9694C51.2203 33.0544 50.7949 33.097 50.3694 33.097C49.5753 33.097 48.8307 32.9623 48.1359 32.6928C47.4552 32.4234 46.8595 32.0334 46.349 31.5229C45.8385 31.0123 45.4343 30.3954 45.1365 29.6722C44.8529 28.9489 44.7111 28.1264 44.7111 27.2046C44.7111 26.6657 44.7607 26.1552 44.86 25.673C44.9734 25.1909 45.1932 24.7229 45.5194 24.2691C45.8456 23.8153 46.2994 23.3827 46.8808 22.9715C47.4764 22.546 48.2493 22.1277 49.1995 21.7164C50.1638 21.3052 51.3338 20.901 52.7094 20.5039C54.0991 20.0927 55.7442 19.6814 57.6445 19.2701V17.3982C57.6445 15.9375 57.3183 14.8597 56.666 14.1648C56.0136 13.4558 54.9855 13.1012 53.5815 13.1012C52.8157 13.1012 52.1634 13.1721 51.6245 13.314C51.0856 13.4558 50.7098 13.5692 50.4971 13.6543V17.4407H47.3275C47.129 17.4407 46.9304 17.4266 46.7319 17.3982C46.5475 17.3698 46.3774 17.3131 46.2214 17.228C46.0654 17.1287 45.9377 17.0011 45.8385 16.8451C45.7534 16.6749 45.7108 16.4551 45.7108 16.1857C45.7108 15.2923 45.9803 14.5265 46.5192 13.8883C47.0581 13.236 47.7601 12.6971 48.6251 12.2716C49.4902 11.8462 50.4616 11.5342 51.5394 11.3357C52.6172 11.1371 53.695 11.0378 54.7727 11.0378C56.12 11.0378 57.2332 11.2009 58.1125 11.5271C59.0059 11.8533 59.7079 12.3071 60.2184 12.8885C60.7431 13.47 61.1118 14.1577 61.3245 14.9519C61.5373 15.7461 61.6436 16.6182 61.6436 17.5684V29.7785C61.6436 30.048 61.7287 30.2678 61.8989 30.438C62.0833 30.6082 62.3031 30.7074 62.5583 30.7358L64.6643 30.8634V32.5652H58.2188ZM57.6445 20.9294C55.6874 21.4257 54.1346 21.915 52.9859 22.3971C51.8372 22.8793 50.965 23.3686 50.3694 23.8649C49.788 24.3471 49.4122 24.8434 49.242 25.354C49.086 25.8503 49.008 26.3679 49.008 26.9068C49.008 27.3606 49.0789 27.8073 49.2207 28.247C49.3767 28.6724 49.5894 29.0553 49.8589 29.3956C50.1425 29.736 50.4829 30.0125 50.88 30.2253C51.2912 30.4238 51.7592 30.5231 52.2839 30.5231C52.8653 30.5231 53.4681 30.4167 54.092 30.204C54.7302 29.9913 55.3116 29.7573 55.8364 29.502C56.4461 29.2042 57.0489 28.8568 57.6445 28.4597V20.9294ZM81.2352 26.2474C81.2352 27.311 81.0438 28.2682 80.6609 29.1191C80.278 29.97 79.732 30.6932 79.0229 31.2889C78.3139 31.8703 77.4417 32.317 76.4065 32.629C75.3712 32.941 74.2083 33.097 72.9178 33.097C72.2513 33.097 71.599 33.0544 70.9608 32.9694C70.3368 32.8984 69.7554 32.7992 69.2165 32.6715C68.6918 32.5581 68.2238 32.4376 67.8125 32.3099C67.4013 32.1823 67.0893 32.0759 66.8766 31.9908V26.2048H69.0889L69.6207 29.9062C70.0603 30.1898 70.5992 30.4663 71.2373 30.7358C71.8897 30.9911 72.6413 31.1187 73.4922 31.1187C74.1162 31.1187 74.6692 31.0265 75.1514 30.8421C75.6336 30.6436 76.0377 30.3883 76.3639 30.0764C76.7043 29.7644 76.9595 29.4098 77.1297 29.0127C77.3141 28.6015 77.4062 28.176 77.4062 27.7364C77.4062 27.1692 77.2999 26.6799 77.0872 26.2687C76.8744 25.8432 76.5625 25.4674 76.1512 25.1412C75.7541 24.8009 75.2578 24.4818 74.6621 24.184C74.0807 23.872 73.4142 23.5316 72.6626 23.1629L72.0882 22.8864C71.2941 22.5035 70.5921 22.1277 69.9823 21.759C69.3725 21.3761 68.8549 20.9719 68.4294 20.5465C68.0182 20.1068 67.7062 19.6318 67.4935 19.1212C67.2807 18.5965 67.1744 18.008 67.1744 17.3556C67.1744 16.3913 67.3446 15.5192 67.6849 14.7392C68.0394 13.9592 68.55 13.2998 69.2165 12.7609C69.883 12.2078 70.6984 11.7824 71.6628 11.4846C72.6413 11.1867 73.7616 11.0378 75.0238 11.0378C75.6619 11.0378 76.2717 11.0733 76.8532 11.1442C77.4346 11.2151 77.9664 11.3002 78.4486 11.3995C78.9307 11.4987 79.3562 11.6051 79.7249 11.7185C80.0936 11.832 80.3843 11.9384 80.5971 12.0376V17.1855H78.3209L77.9806 14.1436C77.6686 13.9025 77.2077 13.6756 76.5979 13.4629C75.9881 13.2501 75.3429 13.1438 74.6621 13.1438C73.4567 13.1438 72.5633 13.4203 71.9819 13.9734C71.4146 14.5123 71.131 15.2072 71.131 16.0581C71.131 16.5544 71.209 16.9869 71.365 17.3556C71.5352 17.7244 71.8046 18.0718 72.1733 18.398C72.5562 18.7242 73.0596 19.0574 73.6836 19.3978C74.3076 19.7239 75.0805 20.0927 76.0023 20.5039C76.7539 20.8443 77.4488 21.2059 78.087 21.5888C78.7251 21.9575 79.2782 22.3759 79.7462 22.8438C80.2142 23.2977 80.5758 23.8011 80.831 24.3542C81.1005 24.9072 81.2352 25.5383 81.2352 26.2474ZM104.954 22.0993C104.954 23.6451 104.705 25.0916 104.209 26.4388C103.727 27.7719 103.032 28.9348 102.124 29.9274C101.231 30.906 100.139 31.6788 98.8485 32.2461C97.5722 32.8134 96.1398 33.097 94.5515 33.097C92.9632 33.097 91.5309 32.8205 90.2546 32.2674C88.9782 31.7001 87.8934 30.9272 86.9999 29.9487C86.1065 28.9702 85.4187 27.8144 84.9366 26.4814C84.4686 25.1341 84.2346 23.6735 84.2346 22.0993C84.2346 20.5536 84.4757 19.1071 84.9578 17.7598C85.44 16.4126 86.1349 15.2426 87.0425 14.2499C87.9501 13.243 89.0421 12.456 90.3184 11.8887C91.6089 11.3215 93.0625 11.0378 94.6792 11.0378C96.2958 11.0378 97.7423 11.3286 99.0187 11.91C100.295 12.4914 101.373 13.2856 102.252 14.2925C103.131 15.2852 103.798 16.4551 104.252 17.8024C104.72 19.1354 104.954 20.5677 104.954 22.0993ZM100.423 22.0568C100.423 20.8655 100.302 19.7239 100.061 18.632C99.8341 17.54 99.4796 16.5757 98.9974 15.739C98.5152 14.9023 97.9125 14.2357 97.1893 13.7394C96.466 13.243 95.6151 12.9949 94.6366 12.9949C93.6297 12.9949 92.7576 13.243 92.0202 13.7394C91.2827 14.2357 90.6729 14.9023 90.1908 15.739C89.7228 16.5757 89.3753 17.54 89.1484 18.632C88.9215 19.7239 88.8081 20.8655 88.8081 22.0568C88.8081 23.2338 88.9215 24.3683 89.1484 25.4603C89.3895 26.5523 89.7511 27.5166 90.2333 28.3533C90.7155 29.19 91.3182 29.8636 92.0414 30.3742C92.7647 30.8705 93.6156 31.1187 94.5941 31.1187C95.5868 31.1187 96.4518 30.8705 97.1893 30.3742C97.9267 29.8778 98.5294 29.2113 98.9974 28.3746C99.4796 27.5379 99.8341 26.5736 100.061 25.4816C100.302 24.3896 100.423 23.248 100.423 22.0568ZM120.652 32.5652V30.8634L122.482 30.7358C122.737 30.7074 122.95 30.6082 123.12 30.438C123.304 30.2678 123.396 30.048 123.396 29.7785V18.4405C123.396 17.0649 123.077 16.0226 122.439 15.3135C121.801 14.5903 120.723 14.2287 119.206 14.2287C118.369 14.2287 117.547 14.3492 116.738 14.5903C115.93 14.8172 115.157 15.115 114.42 15.4837V29.7785C114.42 30.048 114.505 30.2678 114.675 30.438C114.845 30.6082 115.065 30.7074 115.334 30.7358L117.164 30.8634V32.5652H107.315V30.8634L109.442 30.7358C109.711 30.7074 109.931 30.6082 110.101 30.438C110.272 30.2678 110.357 30.048 110.357 29.7785V14.6541H107.315V13.2289L112.633 11.5696H114.42V13.7394C115.029 13.399 115.646 13.0658 116.27 12.7396C116.908 12.4134 117.54 12.1227 118.164 11.8675C118.788 11.6122 119.39 11.4136 119.972 11.2718C120.553 11.1158 121.099 11.0378 121.61 11.0378C123.51 11.0378 124.956 11.6264 125.949 12.8034C126.942 13.9805 127.438 15.6326 127.438 17.7598V29.7785C127.438 30.048 127.523 30.2678 127.693 30.438C127.878 30.6082 128.098 30.7074 128.353 30.7358L130.267 30.8634V32.5652H120.652ZM146.158 32.5652L145.583 29.9913C144.817 30.5727 144.03 31.0903 143.222 31.5441C142.868 31.7427 142.492 31.9341 142.095 32.1185C141.698 32.3028 141.286 32.4659 140.861 32.6077C140.45 32.7637 140.024 32.8843 139.585 32.9694C139.159 33.0544 138.734 33.097 138.308 33.097C137.514 33.097 136.77 32.9623 136.075 32.6928C135.394 32.4234 134.798 32.0334 134.288 31.5229C133.777 31.0123 133.373 30.3954 133.075 29.6722C132.792 28.9489 132.65 28.1264 132.65 27.2046C132.65 26.6657 132.699 26.1552 132.799 25.673C132.912 25.1909 133.132 24.7229 133.458 24.2691C133.784 23.8153 134.238 23.3827 134.82 22.9715C135.415 22.546 136.188 22.1277 137.138 21.7164C138.103 21.3052 139.273 20.901 140.648 20.5039C142.038 20.0927 143.683 19.6814 145.583 19.2701V17.3982C145.583 15.9375 145.257 14.8597 144.605 14.1648C143.952 13.4558 142.924 13.1012 141.52 13.1012C140.755 13.1012 140.102 13.1721 139.563 13.314C139.024 13.4558 138.649 13.5692 138.436 13.6543V17.4407H135.266C135.068 17.4407 134.869 17.4266 134.671 17.3982C134.486 17.3698 134.316 17.3131 134.16 17.228C134.004 17.1287 133.877 17.0011 133.777 16.8451C133.692 16.6749 133.65 16.4551 133.65 16.1857C133.65 15.2923 133.919 14.5265 134.458 13.8883C134.997 13.236 135.699 12.6971 136.564 12.2716C137.429 11.8462 138.4 11.5342 139.478 11.3357C140.556 11.1371 141.634 11.0378 142.712 11.0378C144.059 11.0378 145.172 11.2009 146.051 11.5271C146.945 11.8533 147.647 12.3071 148.157 12.8885C148.682 13.47 149.051 14.1577 149.263 14.9519C149.476 15.7461 149.582 16.6182 149.582 17.5684V29.7785C149.582 30.048 149.668 30.2678 149.838 30.438C150.022 30.6082 150.242 30.7074 150.497 30.7358L152.603 30.8634V32.5652H146.158ZM145.583 20.9294C143.626 21.4257 142.073 21.915 140.925 22.3971C139.776 22.8793 138.904 23.3686 138.308 23.8649C137.727 24.3471 137.351 24.8434 137.181 25.354C137.025 25.8503 136.947 26.3679 136.947 26.9068C136.947 27.3606 137.018 27.8073 137.16 28.247C137.316 28.6724 137.528 29.0553 137.798 29.3956C138.081 29.736 138.422 30.0125 138.819 30.2253C139.23 30.4238 139.698 30.5231 140.223 30.5231C140.804 30.5231 141.407 30.4167 142.031 30.204C142.669 29.9913 143.25 29.7573 143.775 29.502C144.385 29.2042 144.988 28.8568 145.583 28.4597V20.9294ZM154.496 32.5652V30.8634L156.815 30.7358C157.013 30.7358 157.219 30.6365 157.432 30.438C157.659 30.2253 157.772 30.0196 157.772 29.8211V3.59262H154.454V2.14611L160.027 0.46562H161.814V29.8211C161.814 30.0196 161.913 30.2253 162.112 30.438C162.324 30.6365 162.53 30.7358 162.729 30.7358L165.09 30.8634V32.5652H154.496ZM43.4773 76.0993C43.4773 77.6451 43.2291 79.0916 42.7328 80.4388C42.2506 81.7719 41.5557 82.9348 40.6481 83.9274C39.7547 84.906 38.6627 85.6788 37.3722 86.2461C36.0959 86.8134 34.6635 87.097 33.0752 87.097C31.4869 87.097 30.0546 86.8205 28.7783 86.2674C27.5019 85.7001 26.4171 84.9272 25.5236 83.9487C24.6302 82.9702 23.9424 81.8144 23.4603 80.4814C22.9923 79.1341 22.7583 77.6735 22.7583 76.0993C22.7583 74.5536 22.9994 73.1071 23.4815 71.7598C23.9637 70.4126 24.6586 69.2426 25.5662 68.2499C26.4738 67.243 27.5658 66.456 28.8421 65.8887C30.1326 65.3215 31.5862 65.0378 33.2029 65.0378C34.8195 65.0378 36.266 65.3286 37.5424 65.91C38.8187 66.4914 39.8965 67.2856 40.7757 68.2925C41.655 69.2852 42.3215 70.4551 42.7753 71.8024C43.2433 73.1354 43.4773 74.5677 43.4773 76.0993ZM38.9463 76.0568C38.9463 74.8655 38.8258 73.7239 38.5847 72.632C38.3578 71.54 38.0033 70.5757 37.5211 69.739C37.0389 68.9023 36.4362 68.2357 35.713 67.7394C34.9897 67.243 34.1388 66.9949 33.1603 66.9949C32.1534 66.9949 31.2813 67.243 30.5439 67.7394C29.8064 68.2357 29.1966 68.9023 28.7145 69.739C28.2465 70.5757 27.899 71.54 27.6721 72.632C27.4452 73.7239 27.3318 74.8655 27.3318 76.0568C27.3318 77.2338 27.4452 78.3683 27.6721 79.4603C27.9132 80.5523 28.2748 81.5166 28.757 82.3533C29.2392 83.19 29.8419 83.8636 30.5651 84.3742C31.2884 84.8705 32.1393 85.1187 33.1178 85.1187C34.1105 85.1187 34.9755 84.8705 35.713 84.3742C36.4504 83.8778 37.0531 83.2113 37.5211 82.3746C38.0033 81.5379 38.3578 80.5736 38.5847 79.4816C38.8258 78.3896 38.9463 77.248 38.9463 76.0568ZM61.9202 86.5652V84.0764C61.5515 84.36 61.0976 84.6791 60.5588 85.0336C60.034 85.3881 59.4597 85.7214 58.8357 86.0334C58.2259 86.3312 57.5807 86.5794 56.9 86.7779C56.2334 86.9906 55.5811 87.097 54.9429 87.097C54.007 87.097 53.1632 86.9552 52.4116 86.6715C51.6741 86.4021 51.043 85.9837 50.5183 85.4165C50.0078 84.8351 49.6107 84.1047 49.3271 83.2255C49.0577 82.332 48.9229 81.2684 48.9229 80.0347V68.2287H45.881V66.7396L51.2416 65.0378H52.9859V79.205C52.9859 79.9708 53.0568 80.6586 53.1986 81.2684C53.3546 81.8782 53.5957 82.3959 53.9219 82.8213C54.2622 83.2467 54.7018 83.5729 55.2407 83.7998C55.7796 84.0125 56.432 84.1189 57.1978 84.1189C57.6374 84.1189 58.0841 84.0764 58.5379 83.9913C58.9917 83.9062 59.4242 83.7998 59.8355 83.6722C60.2468 83.5304 60.6297 83.3886 60.9842 83.2467C61.3529 83.0907 61.6649 82.9489 61.9202 82.8213V68.2287H58.857V66.7396L64.175 65.0378H65.9619V83.7785C65.9619 84.048 66.054 84.2678 66.2384 84.438C66.4369 84.6082 66.6638 84.7074 66.9191 84.7358L68.8336 84.8634V86.5652H61.9202ZM84.2771 85.6505C83.7382 85.9199 83.1497 86.161 82.5115 86.3737C81.9726 86.5581 81.3487 86.7212 80.6396 86.863C79.9305 87.019 79.186 87.097 78.406 87.097C76.761 87.097 75.5697 86.7141 74.8323 85.9483C74.0949 85.1825 73.7262 83.9345 73.7262 82.2044V67.7394H70.9395V66.3142L73.9176 64.9102L75.8746 60.2942H77.7891V65.5696H83.9368V67.7394H77.7891V79.907C77.7891 80.7721 77.86 81.5095 78.0019 82.1193C78.1579 82.7149 78.3777 83.2042 78.6613 83.5871C78.9591 83.9558 79.3207 84.2253 79.7462 84.3954C80.1858 84.5656 80.6963 84.6507 81.2778 84.6507C81.7032 84.6507 82.0932 84.6152 82.4477 84.5443C82.8164 84.4734 83.1355 84.3883 83.405 84.2891C83.717 84.1756 84.0077 84.048 84.2771 83.9062V85.6505ZM108.315 58.3797C108.315 58.7484 108.244 59.1029 108.102 59.4433C107.96 59.7695 107.762 60.0531 107.506 60.2942C107.265 60.5353 106.982 60.7267 106.655 60.8685C106.329 61.0103 105.982 61.0812 105.613 61.0812C105.244 61.0812 104.897 61.0103 104.571 60.8685C104.259 60.7267 103.982 60.5353 103.741 60.2942C103.5 60.0531 103.309 59.7695 103.167 59.4433C103.025 59.1029 102.954 58.7484 102.954 58.3797C102.954 58.011 103.025 57.6635 103.167 57.3374C103.309 57.0112 103.5 56.7276 103.741 56.4865C103.982 56.2454 104.259 56.061 104.571 55.9334C104.897 55.7916 105.244 55.7207 105.613 55.7207C105.982 55.7207 106.329 55.7916 106.655 55.9334C106.982 56.061 107.265 56.2454 107.506 56.4865C107.762 56.7276 107.96 57.0112 108.102 57.3374C108.244 57.6635 108.315 58.011 108.315 58.3797ZM100.295 86.5652V84.8634L102.443 84.7358C102.699 84.7074 102.911 84.6082 103.082 84.438C103.266 84.2678 103.358 84.048 103.358 83.7785V68.1436H92.9349V83.7785C92.9349 84.048 93.02 84.2749 93.1901 84.4592C93.3745 84.6294 93.5943 84.7216 93.8496 84.7358L96.4235 84.8634V86.5652H85.83V84.8634L87.9785 84.7358C88.2337 84.7074 88.4465 84.6082 88.6166 84.438C88.801 84.2678 88.8932 84.048 88.8932 83.7785V68.1436H86.1065V66.612L88.8932 65.8249C88.8932 65.1017 88.9144 64.4564 88.957 63.8892C89.0137 63.3077 89.0988 62.7688 89.2122 62.2725C89.3399 61.7619 89.4959 61.2727 89.6802 60.8047C89.8646 60.3225 90.0915 59.8191 90.3609 59.2944C90.7864 58.4719 91.2756 57.7628 91.8287 57.1672C92.396 56.5574 92.9987 56.0539 93.6368 55.6569C94.2892 55.2598 94.9628 54.962 95.6577 54.7634C96.3668 54.5649 97.0758 54.4656 97.7849 54.4656C98.3947 54.4656 98.9336 54.5365 99.4016 54.6783C99.8696 54.8202 100.26 55.0116 100.572 55.2527C100.898 55.4938 101.139 55.7703 101.295 56.0823C101.451 56.3943 101.529 56.7276 101.529 57.0821C101.529 57.5217 101.437 57.8904 101.252 58.1882C101.082 58.4719 100.876 58.7059 100.635 58.8902C100.408 59.0604 100.182 59.188 99.9546 59.2731C99.7419 59.3582 99.593 59.4078 99.5079 59.422C99.4796 59.3937 99.359 59.3086 99.1463 59.1667C98.9478 59.0108 98.6996 58.8335 98.4018 58.6349C98.1182 58.4222 97.8062 58.2024 97.4658 57.9755C97.1396 57.7486 96.8347 57.5359 96.5511 57.3374C96.2675 57.1246 96.0264 56.9545 95.8279 56.8268C95.6293 56.685 95.523 56.607 95.5088 56.5928C95.1968 56.763 94.8848 57.0041 94.5728 57.3161C94.275 57.6281 93.9985 58.0464 93.7432 58.5711C93.5021 59.0958 93.3036 59.734 93.1476 60.4856C93.0058 61.223 92.9349 62.1023 92.9349 63.1234V65.91H102.358L105.613 65.0804H107.4V83.7785C107.4 84.048 107.485 84.2678 107.655 84.438C107.839 84.6082 108.059 84.7074 108.315 84.7358L110.506 84.8634V86.5652H100.295ZM126.481 85.6505C125.942 85.9199 125.354 86.161 124.715 86.3737C124.176 86.5581 123.552 86.7212 122.843 86.863C122.134 87.019 121.39 87.097 120.61 87.097C118.965 87.097 117.774 86.7141 117.036 85.9483C116.299 85.1825 115.93 83.9345 115.93 82.2044V67.7394H113.143V66.3142L116.121 64.9102L118.078 60.2942H119.993V65.5696H126.141V67.7394H119.993V79.907C119.993 80.7721 120.064 81.5095 120.206 82.1193C120.362 82.7149 120.581 83.2042 120.865 83.5871C121.163 83.9558 121.525 84.2253 121.95 84.3954C122.39 84.5656 122.9 84.6507 123.482 84.6507C123.907 84.6507 124.297 84.6152 124.652 84.5443C125.02 84.4734 125.339 84.3883 125.609 84.2891C125.921 84.1756 126.211 84.048 126.481 83.9062V85.6505ZM142.626 80.2474C142.626 81.311 142.435 82.2682 142.052 83.1191C141.669 83.97 141.123 84.6932 140.414 85.2889C139.705 85.8703 138.833 86.317 137.798 86.629C136.762 86.941 135.6 87.097 134.309 87.097C133.643 87.097 132.99 87.0544 132.352 86.9694C131.728 86.8984 131.147 86.7992 130.608 86.6715C130.083 86.5581 129.615 86.4376 129.204 86.3099C128.792 86.1823 128.48 86.0759 128.268 85.9908V80.2048H130.48L131.012 83.9062C131.451 84.1898 131.99 84.4663 132.629 84.7358C133.281 84.9911 134.033 85.1187 134.883 85.1187C135.507 85.1187 136.06 85.0265 136.543 84.8421C137.025 84.6436 137.429 84.3883 137.755 84.0764C138.095 83.7644 138.351 83.4098 138.521 83.0127C138.705 82.6015 138.797 82.176 138.797 81.7364C138.797 81.1692 138.691 80.6799 138.478 80.2687C138.266 79.8432 137.954 79.4674 137.542 79.1412C137.145 78.8009 136.649 78.4818 136.053 78.184C135.472 77.872 134.805 77.5316 134.054 77.1629L133.479 76.8864C132.685 76.5035 131.983 76.1277 131.374 75.759C130.764 75.3761 130.246 74.9719 129.821 74.5465C129.409 74.1068 129.097 73.6318 128.885 73.1212C128.672 72.5965 128.566 72.008 128.566 71.3556C128.566 70.3913 128.736 69.5192 129.076 68.7392C129.431 67.9592 129.941 67.2998 130.608 66.7609C131.274 66.2078 132.09 65.7824 133.054 65.4846C134.033 65.1867 135.153 65.0378 136.415 65.0378C137.053 65.0378 137.663 65.0733 138.244 65.1442C138.826 65.2151 139.358 65.3002 139.84 65.3995C140.322 65.4987 140.747 65.6051 141.116 65.7185C141.485 65.832 141.776 65.9384 141.988 66.0376V71.1855H139.712L139.372 68.1436C139.06 67.9025 138.599 67.6756 137.989 67.4629C137.379 67.2501 136.734 67.1438 136.053 67.1438C134.848 67.1438 133.955 67.4203 133.373 67.9734C132.806 68.5123 132.522 69.2072 132.522 70.0581C132.522 70.5544 132.6 70.9869 132.756 71.3556C132.926 71.7244 133.196 72.0718 133.565 72.398C133.947 72.7242 134.451 73.0574 135.075 73.3978C135.699 73.7239 136.472 74.0927 137.393 74.5039C138.145 74.8443 138.84 75.2059 139.478 75.5888C140.116 75.9575 140.669 76.3759 141.137 76.8438C141.605 77.2977 141.967 77.8011 142.222 78.3542C142.492 78.9072 142.626 79.5383 142.626 80.2474Z" fill="#B27735"/>
</svg>
