<svg width="35" height="37" viewBox="0 0 35 37" fill="none" xmlns="http://www.w3.org/2000/svg">
<path d="M17.7863 13.9509C16.5849 13.9509 15.4598 14.417 14.608 15.2688C13.7601 16.1207 13.29 17.2457 13.29 18.4471C13.29 19.6485 13.7601 20.7736 14.608 21.6254C15.4598 22.4732 16.5849 22.9433 17.7863 22.9433C18.9877 22.9433 20.1128 22.4732 20.9646 21.6254C21.8124 20.7736 22.2825 19.6485 22.2825 18.4471C22.2825 17.2457 21.8124 16.1207 20.9646 15.2688C20.5485 14.8496 20.0533 14.5172 19.5077 14.2909C18.9621 14.0647 18.3769 13.9491 17.7863 13.9509ZM34.3529 23.4134L31.7251 21.1673C31.8496 20.4039 31.9139 19.6244 31.9139 18.8489C31.9139 18.0734 31.8496 17.2899 31.7251 16.5305L34.3529 14.2844C34.5514 14.1145 34.6935 13.8881 34.7603 13.6355C34.827 13.3828 34.8153 13.1159 34.7266 12.87L34.6904 12.7656C33.9672 10.7433 32.8836 8.86869 31.492 7.23271L31.4197 7.14833C31.2507 6.94965 31.0255 6.80682 30.7737 6.73868C30.522 6.67054 30.2555 6.68028 30.0093 6.76662L26.7466 7.92783C25.5412 6.93939 24.1992 6.15989 22.7446 5.61745L22.1138 2.20612C22.0662 1.94914 21.9415 1.71271 21.7563 1.52827C21.5712 1.34382 21.3343 1.22008 21.0771 1.17348L20.9686 1.15339C18.8792 0.775693 16.6773 0.775693 14.5879 1.15339L14.4794 1.17348C14.2222 1.22008 13.9853 1.34382 13.8001 1.52827C13.615 1.71271 13.4903 1.94914 13.4427 2.20612L12.8079 5.63352C11.3671 6.18029 10.0249 6.9579 8.83395 7.93587L5.54714 6.76662C5.3011 6.67959 5.0344 6.6695 4.78248 6.73769C4.53056 6.80587 4.30536 6.94909 4.13679 7.14833L4.06446 7.23271C2.67538 8.87043 1.59201 10.7445 0.866056 12.7656L0.829893 12.87C0.649078 13.3723 0.797748 13.9348 1.20358 14.2844L3.86356 16.5546C3.739 17.31 3.67873 18.0815 3.67873 18.8449C3.67873 19.6164 3.739 20.3878 3.86356 21.1352L1.21161 23.4054C1.0131 23.5753 0.871024 23.8017 0.804273 24.0543C0.737523 24.307 0.749261 24.5739 0.837929 24.8197L0.874092 24.9242C1.60137 26.9453 2.6742 28.8137 4.0725 30.4571L4.14483 30.5415C4.3138 30.7401 4.53902 30.883 4.79078 30.9511C5.04255 31.0193 5.30906 31.0095 5.55518 30.9232L8.84199 29.7539C10.0394 30.7383 11.3734 31.5179 12.8159 32.0563L13.4507 35.4837C13.4983 35.7407 13.623 35.9771 13.8082 36.1615C13.9933 36.346 14.2302 36.4697 14.4874 36.5163L14.5959 36.5364C16.7059 36.9161 18.8667 36.9161 20.9767 36.5364L21.0851 36.5163C21.3423 36.4697 21.5792 36.346 21.7644 36.1615C21.9496 35.9771 22.0742 35.7407 22.1218 35.4837L22.7527 32.0723C24.2072 31.5259 25.5493 30.7504 26.7547 29.762L30.0174 30.9232C30.2634 31.0102 30.5301 31.0203 30.782 30.9521C31.034 30.8839 31.2592 30.7407 31.4277 30.5415L31.5001 30.4571C32.8984 28.8057 33.9712 26.9453 34.6985 24.9242L34.7346 24.8197C34.9074 24.3215 34.7587 23.763 34.3529 23.4134ZM17.7863 25.5109C13.8847 25.5109 10.7225 22.3486 10.7225 18.4471C10.7225 14.5456 13.8847 11.3834 17.7863 11.3834C21.6879 11.3834 24.8501 14.5456 24.8501 18.4471C24.8501 22.3486 21.6879 25.5109 17.7863 25.5109Z" fill="#111111"/>
</svg>
