<svg width="50" height="50" viewBox="0 0 50 50" fill="none" xmlns="http://www.w3.org/2000/svg">
<path d="M25.3184 0.527588C20.4567 0.527588 15.7042 1.96924 11.6619 4.67024C7.61954 7.37125 4.46892 11.2103 2.60844 15.7019C0.747955 20.1935 0.261168 25.1359 1.20963 29.9042C2.1581 34.6724 4.49922 39.0524 7.93694 42.4901C11.3747 45.9278 15.7546 48.2689 20.5229 49.2174C25.2911 50.1659 30.2335 49.6791 34.7252 47.8186C39.2168 45.9581 43.0558 42.8075 45.7568 38.7652C48.4578 34.7228 49.8995 29.9703 49.8995 25.1087C49.8926 18.5915 47.3006 12.3432 42.6922 7.73482C38.0839 3.12646 31.8356 0.53447 25.3184 0.527588ZM25.3184 45.908C21.2047 45.908 17.1833 44.6882 13.7629 42.4027C10.3424 40.1172 7.67653 36.8688 6.10228 33.0682C4.52802 29.2676 4.11612 25.0856 4.91867 21.0509C5.72122 17.0162 7.70217 13.3101 10.611 10.4013C13.5199 7.49244 17.2259 5.51149 21.2606 4.70894C25.2953 3.9064 29.4774 4.31829 33.278 5.89255C37.0785 7.4668 40.327 10.1327 42.6124 13.5531C44.8979 16.9736 46.1177 20.9949 46.1177 25.1087C46.1115 30.6231 43.9181 35.9098 40.0188 39.8091C36.1196 43.7084 30.8328 45.9018 25.3184 45.908ZM30.7759 27.9946C32.2616 27.199 33.439 25.9299 34.1213 24.3889C34.8036 22.8478 34.9516 21.123 34.5419 19.4883C34.1322 17.8535 33.1882 16.4024 31.8598 15.3652C30.5313 14.3281 28.8946 13.7644 27.2092 13.7635H19.6458C19.1443 13.7635 18.6634 13.9628 18.3088 14.3174C17.9542 14.672 17.755 15.1529 17.755 15.6544V34.5629C17.755 35.0644 17.9542 35.5453 18.3088 35.8999C18.6634 36.2546 19.1443 36.4538 19.6458 36.4538C20.1473 36.4538 20.6283 36.2546 20.9829 35.8999C21.3375 35.5453 21.5367 35.0644 21.5367 34.5629V28.8904H26.8287L31.3195 35.6123C31.5978 36.0298 32.0306 36.3196 32.5226 36.418C33.0146 36.5165 33.5255 36.4154 33.943 36.137C34.3605 35.8587 34.6503 35.426 34.7487 34.9339C34.8471 34.4419 34.7461 33.931 34.4677 33.5135L30.7759 27.9946ZM21.5367 17.5452H27.2092C28.2122 17.5452 29.1741 17.9437 29.8833 18.6529C30.5925 19.3621 30.9909 20.324 30.9909 21.327C30.9909 22.3299 30.5925 23.2918 29.8833 24.001C29.1741 24.7102 28.2122 25.1087 27.2092 25.1087H21.5367V17.5452Z" fill="#C8CBC2"/>
</svg>
